<?xml version="1.0" encoding="UTF-8" standalone="no"?>
<!DOCTYPE svg PUBLIC "-//W3C//DTD SVG 1.1//EN" "http://www.w3.org/Graphics/SVG/1.1/DTD/svg11.dtd">
<!--Generated by Intaglio, www.PurgatoryDesign.com-->
<svg version="1.1" viewBox="0,0,45,93" width="45" height="93" xmlns="http://www.w3.org/2000/svg" xmlns:xlink="http://www.w3.org/1999/xlink"><g><path fill="#3e4765" d="M10.578,18.931 C10.578,21.198,10.578,31.322,10.578,31.322 L1.5,31.322 L1.5,46.474 L10.578,46.474 L10.578,91.5 L29.227,91.5 L29.227,46.474 L41.74,46.474 C41.74,46.474,42.912,39.209,43.479,31.265 C41.851,31.265,29.297,31.265,29.297,31.265 C29.297,31.265,29.297,22.449,29.297,20.905 C29.297,19.357,31.33,17.274,33.34,17.274 C35.346,17.274,39.58,17.274,43.5,17.274 C43.5,15.211,43.5,8.083,43.5,1.5 C38.266,1.5,32.312,1.5,29.686,1.5 C10.117,1.5,10.578,16.666,10.578,18.931"/><path fill="#3e4765" stroke="#fe4b1c" stroke-width="2" d="M10.578,18.931 C10.578,21.198,10.578,31.322,10.578,31.322 L1.5,31.322 L1.5,46.474 L10.578,46.474 L10.578,91.5 L29.227,91.5 L29.227,46.474 L41.74,46.474 C41.74,46.474,42.912,39.209,43.479,31.265 C41.851,31.265,29.297,31.265,29.297,31.265 C29.297,31.265,29.297,22.449,29.297,20.905 C29.297,19.357,31.33,17.274,33.34,17.274 C35.346,17.274,39.58,17.274,43.5,17.274 C43.5,15.211,43.5,8.083,43.5,1.5 C38.266,1.5,32.312,1.5,29.686,1.5 C10.117,1.5,10.578,16.666,10.578,18.931"/></g></svg>
