<?xml version="1.0" encoding="UTF-8" standalone="no"?>
<!DOCTYPE svg PUBLIC "-//W3C//DTD SVG 1.1//EN" "http://www.w3.org/Graphics/SVG/1.1/DTD/svg11.dtd">
<!--Generated by Intaglio, www.PurgatoryDesign.com-->
<svg version="1.1" viewBox="29,5,42,90" width="42" height="90" xmlns="http://www.w3.org/2000/svg" xmlns:xlink="http://www.w3.org/1999/xlink"><path fill="#3e4765" d="M38.078,22.431 C38.078,24.699,38.078,34.822,38.078,34.822 L29,34.822 L29,49.974 L38.078,49.974 L38.078,95 L56.727,95 L56.727,49.975 L69.24,49.975 C69.24,49.975,70.412,42.71,70.98,34.766 C69.351,34.766,56.797,34.766,56.797,34.766 C56.797,34.766,56.797,25.951,56.797,24.406 C56.797,22.858,58.83,20.775,60.84,20.775 C62.846,20.775,67.079,20.775,71,20.775 C71,18.712,71,11.584,71,5.001 C65.765,5.001,59.811,5.001,57.186,5.001 C37.617,5,38.078,20.167,38.078,22.431 Z"/></svg>
