<?xml version="1.0" encoding="UTF-8" standalone="no"?>
<!DOCTYPE svg PUBLIC "-//W3C//DTD SVG 1.1//EN" "http://www.w3.org/Graphics/SVG/1.1/DTD/svg11.dtd">
<!--Generated by Intaglio, www.PurgatoryDesign.com-->
<svg version="1.1" viewBox="0,0,91,72" width="91" height="72" xmlns="http://www.w3.org/2000/svg" xmlns:xlink="http://www.w3.org/1999/xlink"><g><path fill="#3e4765" d="M66.209,1.5 C67.379,4.158,68.137,8.57,67.006,11.801 C71.631,15.75,73.221,25.351,70.989,33.195 C77.581,33.699,85.432,32.954,90.5,34.977 C85.762,34.368,79.292,33.173,73.18,33.589 C72.022,33.667,70.307,33.545,70.391,35.174 C77.465,35.729,84.495,36.334,90.303,38.146 C84.543,37.205,77.549,35.773,70.391,35.572 C67.434,41.408,61.483,44.275,53.268,44.879 C54.151,46.801,55.842,47.532,56.256,50.624 C56.872,55.241,55.292,62.005,56.85,65.083 C57.598,66.557,58.817,66.597,59.639,67.857 C57.627,70.239,52.639,67.591,52.071,65.083 C51.098,60.788,53.553,54.129,50.877,51.218 C51.067,55.902,49.77,62.482,51.077,66.667 C51.592,68.313,53.079,68.948,52.67,70.432 C43.319,71.382,47.225,58.328,45.698,50.624 C44.288,50.724,44.907,52.737,44.903,53.595 C44.862,61.12,46.442,71.439,38.333,70.432 C38.094,68.852,39.42,68.313,39.924,66.869 C41.405,62.635,39.647,56.327,40.327,51.218 C37.231,53.551,40.651,61.698,38.733,65.875 C37.627,68.278,34.067,69.325,31.366,68.251 C31.717,66.461,33.567,66.75,34.35,65.083 C35.446,62.757,34.358,59.409,34.75,55.972 C29.02,57.115,24.577,55.806,22.403,52.208 C21.43,50.592,21.188,48.688,20.012,47.257 C18.842,45.825,16.973,45.632,16.43,43.693 C23.526,41.985,23.797,50.995,30.17,51.218 C32.124,51.289,33.139,50.653,34.948,50.229 C35.454,47.957,36.538,46.263,38.133,45.076 C30.206,43.991,23.657,41.522,20.612,35.572 C13.403,35.927,6.807,36.89,0.698,38.343 C6.243,36.329,13.083,35.607,20.413,35.371 C19.981,32.774,16.194,33.488,13.842,33.589 C9.473,33.782,3.973,34.325,0.5,34.977 C5.536,33.182,12.598,33.406,19.418,33.392 C17.333,26.852,18.055,16.463,22.604,12.594 C21.315,9.345,21.715,4.031,23.401,1.5 C28.479,1.729,31.559,3.943,34.75,6.058 C38.708,4.932,42.868,4.373,48.29,4.67 C50.571,4.797,52.942,5.821,54.659,5.659 C56.344,5.501,58.202,3.61,59.836,2.888 C61.969,1.947,63.772,1.588,66.209,1.5"/><path fill="#3e4765" stroke="#fe4b1c" stroke-width="2" d="M66.209,1.5 C67.379,4.158,68.137,8.57,67.006,11.801 C71.631,15.75,73.221,25.351,70.989,33.195 C77.581,33.699,85.432,32.954,90.5,34.977 C85.762,34.368,79.292,33.173,73.18,33.589 C72.022,33.667,70.307,33.545,70.391,35.174 C77.465,35.729,84.495,36.334,90.303,38.146 C84.543,37.205,77.549,35.773,70.391,35.572 C67.434,41.408,61.483,44.275,53.268,44.879 C54.151,46.801,55.842,47.532,56.256,50.624 C56.872,55.241,55.292,62.005,56.85,65.083 C57.598,66.557,58.817,66.597,59.639,67.857 C57.627,70.239,52.639,67.591,52.071,65.083 C51.098,60.788,53.553,54.129,50.877,51.218 C51.067,55.902,49.77,62.482,51.077,66.667 C51.592,68.313,53.079,68.948,52.67,70.432 C43.319,71.382,47.225,58.328,45.698,50.624 C44.288,50.724,44.907,52.737,44.903,53.595 C44.862,61.12,46.442,71.439,38.333,70.432 C38.094,68.852,39.42,68.313,39.924,66.869 C41.405,62.635,39.647,56.327,40.327,51.218 C37.231,53.551,40.651,61.698,38.733,65.875 C37.627,68.278,34.067,69.325,31.366,68.251 C31.717,66.461,33.567,66.75,34.35,65.083 C35.446,62.757,34.358,59.409,34.75,55.972 C29.02,57.115,24.577,55.806,22.403,52.208 C21.43,50.592,21.188,48.688,20.012,47.257 C18.842,45.825,16.973,45.632,16.43,43.693 C23.526,41.985,23.797,50.995,30.17,51.218 C32.124,51.289,33.139,50.653,34.948,50.229 C35.454,47.957,36.538,46.263,38.133,45.076 C30.206,43.991,23.657,41.522,20.612,35.572 C13.403,35.927,6.807,36.89,0.698,38.343 C6.243,36.329,13.083,35.607,20.413,35.371 C19.981,32.774,16.194,33.488,13.842,33.589 C9.473,33.782,3.973,34.325,0.5,34.977 C5.536,33.182,12.598,33.406,19.418,33.392 C17.333,26.852,18.055,16.463,22.604,12.594 C21.315,9.345,21.715,4.031,23.401,1.5 C28.479,1.729,31.559,3.943,34.75,6.058 C38.708,4.932,42.868,4.373,48.29,4.67 C50.571,4.797,52.942,5.821,54.659,5.659 C56.344,5.501,58.202,3.61,59.836,2.888 C61.969,1.947,63.772,1.588,66.209,1.5"/></g></svg>
