<?xml version="1.0" encoding="UTF-8" standalone="no"?>
<!DOCTYPE svg PUBLIC "-//W3C//DTD SVG 1.1//EN" "http://www.w3.org/Graphics/SVG/1.1/DTD/svg11.dtd">
<!--Generated by Intaglio, www.PurgatoryDesign.com-->
<svg version="1.1" viewBox="0,0,93,89" width="93" height="89" xmlns="http://www.w3.org/2000/svg" xmlns:xlink="http://www.w3.org/1999/xlink"><g><path fill="#3e4765" d="M2.646,87.5 L21.935,87.5 L21.935,29.473 L2.646,29.473 Z M12.419,1.5 C5.818,1.5,1.5,5.831,1.5,11.524 C1.5,17.095,5.693,21.555,12.164,21.555 L12.292,21.555 C19.021,21.555,23.207,17.095,23.207,11.524 C23.08,5.831,19.021,1.5,12.419,1.5 Z M91.499,54.228 L91.499,87.5 L72.21,87.5 L72.21,56.456 C72.21,48.657,69.419,43.335,62.437,43.335 C57.107,43.335,53.935,46.922,52.539,50.391 C52.031,51.632,51.9,53.358,51.9,55.095 L51.9,87.5 L32.605,87.5 C32.605,87.5,32.865,34.921,32.605,29.473 L51.9,29.473 L51.9,37.698 L51.773,37.886 L51.9,37.886 L51.9,37.698 C54.462,33.75,59.041,28.109,69.287,28.109 C81.984,28.109,91.499,36.404,91.499,54.228"/><path fill="#3e4765" stroke="#fe4b1c" stroke-width="2" d="M2.646,87.5 L21.935,87.5 L21.935,29.473 L2.646,29.473 Z M12.419,1.5 C5.818,1.5,1.5,5.831,1.5,11.524 C1.5,17.095,5.693,21.555,12.164,21.555 L12.292,21.555 C19.021,21.555,23.207,17.095,23.207,11.524 C23.08,5.831,19.021,1.5,12.419,1.5 Z M91.499,54.228 L91.499,87.5 L72.21,87.5 L72.21,56.456 C72.21,48.657,69.419,43.335,62.437,43.335 C57.107,43.335,53.935,46.922,52.539,50.391 C52.031,51.632,51.9,53.358,51.9,55.095 L51.9,87.5 L32.605,87.5 C32.605,87.5,32.865,34.921,32.605,29.473 L51.9,29.473 L51.9,37.698 L51.773,37.886 L51.9,37.886 L51.9,37.698 C54.462,33.75,59.041,28.109,69.287,28.109 C81.984,28.109,91.499,36.404,91.499,54.228"/></g></svg>
