<?xml version="1.0" encoding="UTF-8" standalone="no"?>
<!DOCTYPE svg PUBLIC "-//W3C//DTD SVG 1.1//EN" "http://www.w3.org/Graphics/SVG/1.1/DTD/svg11.dtd">
<!--Generated by Intaglio, www.PurgatoryDesign.com-->
<svg version="1.1" viewBox="0,0,95,65" width="95" height="65" xmlns="http://www.w3.org/2000/svg" xmlns:xlink="http://www.w3.org/1999/xlink"><g><path fill="#3e4765" d="M81.301,29.06 C86.361,28.65,89.791,26.35,91.111,23.23 C89.281,24.35,83.621,25.57,80.501,24.41 C80.341,23.68,80.171,22.98,80.011,22.35 C77.621,13.6,69.471,6.56,60.921,7.41 C61.611,7.13,62.321,6.87,63.021,6.63 C63.951,6.3,69.471,5.4,68.601,3.45 C67.871,1.74,61.131,4.75,59.861,5.14 C61.541,4.51,64.311,3.43,64.601,1.5 C62.041,1.85,59.521,3.07,57.571,4.83 C58.271,4.07,58.811,3.15,58.921,2.16 C52.071,6.53,48.071,15.35,44.831,23.91 C42.291,21.45,40.039,19.51,38.018,18.43 C32.348,15.39,25.569,12.22,14.926,8.26 C14.6,11.79,16.668,16.47,22.625,19.58 C21.334,19.41,18.975,19.79,17.086,20.25 C17.856,24.28,20.366,27.6,27.166,29.21 C24.059,29.41,22.454,30.12,20.998,31.65 C22.412,34.45,25.866,37.75,32.077,37.07 C25.172,40.05,29.262,45.56,34.881,44.74 C25.295,54.64,10.18,53.92,1.5,45.63 C24.162,76.51,73.421,63.9,80.761,34.15 C86.261,34.2,89.501,32.25,91.501,30.1 C88.331,30.63,83.741,30.08,81.301,29.06"/><path fill="#3e4765" stroke="#fe4b1c" stroke-width="2" d="M81.301,29.06 C86.361,28.65,89.791,26.35,91.111,23.23 C89.281,24.35,83.621,25.57,80.501,24.41 C80.341,23.68,80.171,22.98,80.011,22.35 C77.621,13.6,69.471,6.56,60.921,7.41 C61.611,7.13,62.321,6.87,63.021,6.63 C63.951,6.3,69.471,5.4,68.601,3.45 C67.871,1.74,61.131,4.75,59.861,5.14 C61.541,4.51,64.311,3.43,64.601,1.5 C62.041,1.85,59.521,3.07,57.571,4.83 C58.271,4.07,58.811,3.15,58.921,2.16 C52.071,6.53,48.071,15.35,44.831,23.91 C42.291,21.45,40.039,19.51,38.018,18.43 C32.348,15.39,25.569,12.22,14.926,8.26 C14.6,11.79,16.668,16.47,22.625,19.58 C21.334,19.41,18.975,19.79,17.086,20.25 C17.856,24.28,20.366,27.6,27.166,29.21 C24.059,29.41,22.454,30.12,20.998,31.65 C22.412,34.45,25.866,37.75,32.077,37.07 C25.172,40.05,29.262,45.56,34.881,44.74 C25.295,54.64,10.18,53.92,1.5,45.63 C24.162,76.51,73.421,63.9,80.761,34.15 C86.261,34.2,89.501,32.25,91.501,30.1 C88.331,30.63,83.741,30.08,81.301,29.06"/></g></svg>
