<?xml version="1.0" encoding="UTF-8" standalone="no"?>
<!DOCTYPE svg PUBLIC "-//W3C//DTD SVG 1.1//EN" "http://www.w3.org/Graphics/SVG/1.1/DTD/svg11.dtd">
<!--Generated by Intaglio, www.PurgatoryDesign.com-->
<svg version="1.1" viewBox="5,18,90,64" width="90" height="64" xmlns="http://www.w3.org/2000/svg" xmlns:xlink="http://www.w3.org/1999/xlink"><path fill="#3e4765" d="M84.803,46.564 C89.858,46.147,93.286,43.849,94.606,40.731 C92.782,41.851,87.122,43.072,83.996,41.909 C83.843,41.175,83.672,40.477,83.504,39.847 C81.122,31.101,72.967,24.055,64.422,24.906 C65.113,24.627,65.814,24.367,66.514,24.134 C67.454,23.797,72.973,22.899,72.104,20.951 C71.371,19.238,64.629,22.246,63.36,22.639 C65.035,22.009,67.807,20.925,68.103,18.999 C65.536,19.351,63.016,20.565,61.069,22.33 C61.772,21.573,62.305,20.651,62.418,19.658 C55.57,24.033,51.57,32.853,48.333,41.408 C45.791,38.945,43.538,37.005,41.517,35.928 C35.847,32.887,29.068,29.715,18.426,25.764 C18.099,29.285,20.167,33.967,26.126,37.08 C24.835,36.907,22.474,37.293,20.586,37.745 C21.355,41.779,23.866,45.102,30.665,46.709 C27.558,46.914,25.952,47.621,24.497,49.145 C25.912,51.95,29.365,55.252,35.577,54.574 C28.671,57.551,32.761,63.064,38.381,62.241 C28.794,72.143,13.679,71.416,5,63.134 C27.661,94.013,76.921,81.396,84.262,51.653 C89.761,51.7,92.995,49.748,95,47.596 C91.831,48.134,87.239,47.578,84.803,46.564 Z"/></svg>
