<?xml version="1.0" encoding="UTF-8" standalone="no"?>
<!DOCTYPE svg PUBLIC "-//W3C//DTD SVG 1.1//EN" "http://www.w3.org/Graphics/SVG/1.1/DTD/svg11.dtd">
<!--Generated by Intaglio, www.PurgatoryDesign.com-->
<svg version="1.1" viewBox="0,0,17,37" width="17" height="37" xmlns="http://www.w3.org/2000/svg" xmlns:xlink="http://www.w3.org/1999/xlink"><path fill="#3e4765" d="M3.6312,6.973 C3.6312,7.8802,3.6312,11.9294,3.6312,11.9294 L0,11.9294 L0,17.9902 L3.6312,17.9902 L3.6312,36.0006 L11.0908,36.0006 L11.0908,17.9906 L16.096,17.9906 C16.096,17.9906,16.5648,15.0846,16.792,11.907 C16.1404,11.907,11.1188,11.907,11.1188,11.907 C11.1188,11.907,11.1188,8.381,11.1188,7.763 C11.1188,7.1438,11.932,6.3106,12.736,6.3106 C13.5384,6.3106,15.2316,6.3106,16.8,6.3106 C16.8,5.4854,16.8,2.6342,16.8,0.000999928 C14.706,0.000999928,12.3244,0.000999928,11.2744,0.000999928 C3.4468,0.000599956,3.6312,6.0674,3.6312,6.973 Z"/></svg>
