<?xml version="1.0" encoding="UTF-8" standalone="no"?>
<!DOCTYPE svg PUBLIC "-//W3C//DTD SVG 1.1//EN" "http://www.w3.org/Graphics/SVG/1.1/DTD/svg11.dtd">
<!--Generated by Intaglio, www.PurgatoryDesign.com-->
<svg version="1.1" viewBox="1,1,18,37" width="18" height="37" xmlns="http://www.w3.org/2000/svg" xmlns:xlink="http://www.w3.org/1999/xlink"><g><path fill="#3e4765" d="M5.1312,8.4724 C5.1312,9.3792,5.1312,13.4288,5.1312,13.4288 L1.5,13.4288 L1.5,19.4896 L5.1312,19.4896 L5.1312,37.5 L12.5908,37.5 L12.5908,19.4896 L17.596,19.4896 C17.596,19.4896,18.0648,16.5836,18.2916,13.406 C17.6404,13.406,12.6188,13.406,12.6188,13.406 C12.6188,13.406,12.6188,9.8796,12.6188,9.262 C12.6188,8.6428,13.432,7.8096,14.236,7.8096 C15.0384,7.8096,16.732,7.8096,18.3,7.8096 C18.3,6.9844,18.3,4.1332,18.3,1.5 C16.2064,1.5,13.8248,1.5,12.7744,1.5 C4.9468,1.5,5.1312,7.5664,5.1312,8.4724"/><path fill="#3e4765" stroke="#fe4b1c" d="M5.1312,8.4724 C5.1312,9.3792,5.1312,13.4288,5.1312,13.4288 L1.5,13.4288 L1.5,19.4896 L5.1312,19.4896 L5.1312,37.5 L12.5908,37.5 L12.5908,19.4896 L17.596,19.4896 C17.596,19.4896,18.0648,16.5836,18.2916,13.406 C17.6404,13.406,12.6188,13.406,12.6188,13.406 C12.6188,13.406,12.6188,9.8796,12.6188,9.262 C12.6188,8.6428,13.432,7.8096,14.236,7.8096 C15.0384,7.8096,16.732,7.8096,18.3,7.8096 C18.3,6.9844,18.3,4.1332,18.3,1.5 C16.2064,1.5,13.8248,1.5,12.7744,1.5 C4.9468,1.5,5.1312,7.5664,5.1312,8.4724"/></g></svg>
