<?xml version="1.0" encoding="UTF-8" standalone="no"?>
<!DOCTYPE svg PUBLIC "-//W3C//DTD SVG 1.1//EN" "http://www.w3.org/Graphics/SVG/1.1/DTD/svg11.dtd">
<!--Generated by Intaglio, www.PurgatoryDesign.com-->
<svg version="1.1" viewBox="0,0,37,30" width="37" height="30" xmlns="http://www.w3.org/2000/svg" xmlns:xlink="http://www.w3.org/1999/xlink"><g><path fill="#3e4765" d="M26.7836,1.5 C27.2516,2.5632,27.5548,4.328,27.1024,5.6204 C28.9524,7.2,29.5884,11.0404,28.6956,14.178 C31.3324,14.3796,34.4728,14.0816,36.5,14.8908 C34.6048,14.6472,32.0168,14.1692,29.572,14.3356 C29.1088,14.3668,28.4228,14.318,28.4564,14.9696 C31.286,15.1916,34.098,15.4336,36.4212,16.1584 C34.1172,15.782,31.3196,15.2092,28.4564,15.1288 C27.2736,17.4632,24.8932,18.61,21.6072,18.8516 C21.9604,19.6204,22.6368,19.9128,22.8024,21.1496 C23.0488,22.9964,22.4168,25.702,23.04,26.9332 C23.3392,27.5228,23.8268,27.5388,24.1556,28.0428 C23.3508,28.9956,21.3556,27.9364,21.1284,26.9332 C20.7392,25.2152,21.7212,22.5516,20.6508,21.3872 C20.7268,23.2608,20.208,25.8928,20.7308,27.5668 C20.9368,28.2252,21.5316,28.4792,21.368,29.0728 C17.6276,29.4528,19.19,24.2312,18.5792,21.1496 C18.0152,21.1896,18.2628,21.9948,18.2612,22.338 C18.2448,25.348,18.8768,29.4756,15.6332,29.0728 C15.5376,28.4408,16.068,28.2252,16.2696,27.6476 C16.862,25.954,16.1588,23.4308,16.4308,21.3872 C15.1924,22.3204,16.5604,25.5792,15.7932,27.25 C15.3508,28.2112,13.9268,28.63,12.8464,28.2004 C12.9868,27.4844,13.7268,27.6,14.04,26.9332 C14.4784,26.0028,14.0432,24.6636,14.2,23.2888 C11.908,23.746,10.1308,23.2224,9.2612,21.7832 C8.872,21.1368,8.7752,20.3752,8.3048,19.8028 C7.8368,19.23,7.0892,19.1528,6.872,18.3772 C9.7104,17.694,9.8188,21.298,12.368,21.3872 C13.1496,21.4156,13.5556,21.1612,14.2792,20.9916 C14.4816,20.0828,14.9152,19.4052,15.5532,18.9304 C12.3824,18.4964,9.7628,17.5088,8.5448,15.1288 C5.6612,15.2708,3.0228,15.656,0.5792,16.2372 C2.7972,15.4316,5.5332,15.1428,8.4652,15.0484 C8.2924,14.0096,6.7776,14.2952,5.8368,14.3356 C4.0892,14.4128,1.8892,14.63,0.5,14.8908 C2.5144,14.1728,5.3392,14.2624,8.0672,14.2568 C7.2332,11.6408,7.522,7.4852,9.3416,5.9376 C8.826,4.638,8.986,2.5124,9.6604,1.5 C11.6916,1.5916,12.9236,2.4772,14.2,3.3232 C15.7832,2.8728,17.4472,2.6492,19.616,2.768 C20.5284,2.8188,21.4768,3.2284,22.1636,3.1636 C22.8376,3.1004,23.5808,2.344,24.2344,2.0552 C25.0876,1.6788,25.8088,1.5352,26.7836,1.5"/><path fill="#3e4765" stroke="#fe4b1c" d="M26.7836,1.5 C27.2516,2.5632,27.5548,4.328,27.1024,5.6204 C28.9524,7.2,29.5884,11.0404,28.6956,14.178 C31.3324,14.3796,34.4728,14.0816,36.5,14.8908 C34.6048,14.6472,32.0168,14.1692,29.572,14.3356 C29.1088,14.3668,28.4228,14.318,28.4564,14.9696 C31.286,15.1916,34.098,15.4336,36.4212,16.1584 C34.1172,15.782,31.3196,15.2092,28.4564,15.1288 C27.2736,17.4632,24.8932,18.61,21.6072,18.8516 C21.9604,19.6204,22.6368,19.9128,22.8024,21.1496 C23.0488,22.9964,22.4168,25.702,23.04,26.9332 C23.3392,27.5228,23.8268,27.5388,24.1556,28.0428 C23.3508,28.9956,21.3556,27.9364,21.1284,26.9332 C20.7392,25.2152,21.7212,22.5516,20.6508,21.3872 C20.7268,23.2608,20.208,25.8928,20.7308,27.5668 C20.9368,28.2252,21.5316,28.4792,21.368,29.0728 C17.6276,29.4528,19.19,24.2312,18.5792,21.1496 C18.0152,21.1896,18.2628,21.9948,18.2612,22.338 C18.2448,25.348,18.8768,29.4756,15.6332,29.0728 C15.5376,28.4408,16.068,28.2252,16.2696,27.6476 C16.862,25.954,16.1588,23.4308,16.4308,21.3872 C15.1924,22.3204,16.5604,25.5792,15.7932,27.25 C15.3508,28.2112,13.9268,28.63,12.8464,28.2004 C12.9868,27.4844,13.7268,27.6,14.04,26.9332 C14.4784,26.0028,14.0432,24.6636,14.2,23.2888 C11.908,23.746,10.1308,23.2224,9.2612,21.7832 C8.872,21.1368,8.7752,20.3752,8.3048,19.8028 C7.8368,19.23,7.0892,19.1528,6.872,18.3772 C9.7104,17.694,9.8188,21.298,12.368,21.3872 C13.1496,21.4156,13.5556,21.1612,14.2792,20.9916 C14.4816,20.0828,14.9152,19.4052,15.5532,18.9304 C12.3824,18.4964,9.7628,17.5088,8.5448,15.1288 C5.6612,15.2708,3.0228,15.656,0.5792,16.2372 C2.7972,15.4316,5.5332,15.1428,8.4652,15.0484 C8.2924,14.0096,6.7776,14.2952,5.8368,14.3356 C4.0892,14.4128,1.8892,14.63,0.5,14.8908 C2.5144,14.1728,5.3392,14.2624,8.0672,14.2568 C7.2332,11.6408,7.522,7.4852,9.3416,5.9376 C8.826,4.638,8.986,2.5124,9.6604,1.5 C11.6916,1.5916,12.9236,2.4772,14.2,3.3232 C15.7832,2.8728,17.4472,2.6492,19.616,2.768 C20.5284,2.8188,21.4768,3.2284,22.1636,3.1636 C22.8376,3.1004,23.5808,2.344,24.2344,2.0552 C25.0876,1.6788,25.8088,1.5352,26.7836,1.5"/></g></svg>
