<?xml version="1.0" encoding="UTF-8" standalone="no"?>
<!DOCTYPE svg PUBLIC "-//W3C//DTD SVG 1.1//EN" "http://www.w3.org/Graphics/SVG/1.1/DTD/svg11.dtd">
<!--Generated by Intaglio, www.PurgatoryDesign.com-->
<svg version="1.1" viewBox="0,0,36,28" width="36" height="28" xmlns="http://www.w3.org/2000/svg" xmlns:xlink="http://www.w3.org/1999/xlink"><path fill="#3e4765" d="M26.2836,0.0290003 C26.7516,1.0918,27.0548,2.857,26.6024,4.1494 C28.4524,5.729,29.088,9.569,28.1952,12.707 C30.832,12.9082,33.9724,12.6102,36,13.4194 C34.1048,13.1758,31.5164,12.6978,29.072,12.8642 C28.6088,12.8958,27.9224,12.8466,27.956,13.4982 C30.786,13.7206,33.5976,13.9622,35.9212,14.6874 C33.6168,14.311,30.8196,13.7378,27.956,13.6578 C26.7732,15.9918,24.3932,17.139,21.1072,17.3806 C21.4604,18.149,22.1368,18.4418,22.302,19.6782 C22.5484,21.5254,21.9164,24.2306,22.54,25.4618 C22.8392,26.0518,23.3268,26.0674,23.6556,26.5718 C22.8508,27.5242,20.8552,26.465,20.6284,25.4618 C20.2392,23.7438,21.2212,21.0802,20.1512,19.9158 C20.2268,21.7894,19.708,24.4214,20.2308,26.0954 C20.4368,26.7538,21.0316,27.0078,20.868,27.6014 C17.1272,27.9814,18.6904,22.7598,18.0792,19.6778 C17.5148,19.7178,17.7628,20.523,17.7608,20.8666 C17.7448,23.8762,18.3768,28.0042,15.1328,27.6014 C15.038,26.969,15.568,26.7538,15.77,26.1762 C16.3616,24.4826,15.6592,21.9594,15.9304,19.9158 C14.6924,20.849,16.0604,24.1078,15.2932,25.7786 C14.8512,26.7402,13.4268,27.1586,12.3464,26.7294 C12.4872,26.0134,13.2264,26.129,13.54,25.4618 C13.9784,24.5318,13.5432,23.1922,13.6996,21.8174 C11.408,22.2746,9.6304,21.751,8.7604,20.3118 C8.3712,19.6658,8.2748,18.9038,7.8044,18.3314 C7.3364,17.7586,6.5884,17.6814,6.3716,16.9058 C9.2096,16.2226,9.3184,19.8266,11.8672,19.9158 C12.6488,19.9442,13.0552,19.6902,13.7784,19.5202 C13.9808,18.6114,14.414,17.9338,15.0528,17.459 C11.8812,17.025,9.262,16.0374,8.044,13.6574 C5.1608,13.7994,2.5224,14.1842,0.0788,14.7658 C2.2968,13.9602,5.0324,13.6714,7.9648,13.5766 C7.792,12.5382,6.2772,12.8238,5.3368,12.8638 C3.5892,12.9414,1.3892,13.1586,0,13.4194 C2.0136,12.7014,4.8392,12.791,7.5672,12.7854 C6.7328,10.1694,7.022,6.0138,8.8416,4.4662 C8.326,3.1666,8.486,1.041,9.16,0.0290003 C11.1916,0.1202,12.4236,1.0062,13.7,1.8518 C15.2828,1.4018,16.9472,1.1778,19.116,1.297 C20.028,1.3474,20.9768,1.7574,21.6636,1.6926 C22.3376,1.6294,23.0804,0.873,23.7348,0.5842 C24.5872,0.2078,25.3084,0.0642,26.2836,0.0290003 Z"/></svg>
