<?xml version="1.0" encoding="UTF-8" standalone="no"?>
<!DOCTYPE svg PUBLIC "-//W3C//DTD SVG 1.1//EN" "http://www.w3.org/Graphics/SVG/1.1/DTD/svg11.dtd">
<!--Generated by Intaglio, www.PurgatoryDesign.com-->
<svg version="1.1" viewBox="0,0,36,35" width="36" height="35" xmlns="http://www.w3.org/2000/svg" xmlns:xlink="http://www.w3.org/1999/xlink"><path fill="#3e4765" d="M36,21.0908 L36,34.4 L28.284,34.4 L28.284,21.982 C28.284,18.8624,27.168,16.7336,24.3748,16.7336 C22.2428,16.7336,20.974,18.1684,20.416,19.556 C20.2124,20.0524,20.16,20.7428,20.16,21.4376 L20.16,34.4 L12.4416,34.4 C12.4416,34.4,12.5456,13.368,12.4416,11.1888 L20.1596,11.1888 L20.1596,14.4788 C20.144,14.5036,20.1236,14.53,20.1088,14.554 L20.1596,14.554 L20.1596,14.4788 C21.1848,12.8996,23.016,10.6436,27.1148,10.6436 C32.1932,10.6436,36,13.9612,36,21.0908 Z M4.3676,0 C1.7272,0,0,1.732,0,4.0096 C0,6.2376,1.6772,8.022,4.2652,8.022 L4.3168,8.022 C7.0084,8.022,8.6824,6.238,8.6824,4.0096 C8.6316,1.732,7.0084,0,4.3676,0 Z M0.4584,34.4 L8.174,34.4 L8.174,11.1888 L0.4584,11.1888 L0.4584,34.4 Z"/></svg>
