<?xml version="1.0" encoding="UTF-8" standalone="no"?>
<!DOCTYPE svg PUBLIC "-//W3C//DTD SVG 1.1//EN" "http://www.w3.org/Graphics/SVG/1.1/DTD/svg11.dtd">
<!--Generated by Intaglio, www.PurgatoryDesign.com-->
<svg version="1.1" viewBox="1,1,37,36" width="37" height="36" xmlns="http://www.w3.org/2000/svg" xmlns:xlink="http://www.w3.org/1999/xlink"><g><path fill="#3e4765" d="M1.9584,35.9 L9.674,35.9 L9.674,12.6892 L1.9584,12.6892 Z M5.8676,1.5 C3.2272,1.5,1.5,3.2324,1.5,5.5096 C1.5,7.738,3.1772,9.522,5.7656,9.522 L5.8168,9.522 C8.5084,9.522,10.1828,7.738,10.1828,5.5096 C10.132,3.2324,8.5084,1.5,5.8676,1.5 Z M37.4996,22.5912 L37.4996,35.9 L29.784,35.9 L29.784,23.4824 C29.784,20.3628,28.6676,18.234,25.8748,18.234 C23.7428,18.234,22.474,19.6688,21.9156,21.0564 C21.7124,21.5528,21.66,22.2432,21.66,22.938 L21.66,35.9 L13.942,35.9 C13.942,35.9,14.046,14.8684,13.942,12.6892 L21.66,12.6892 L21.66,15.9792 L21.6092,16.0544 L21.66,16.0544 L21.66,15.9792 C22.6848,14.4,24.5164,12.1436,28.6148,12.1436 C33.6936,12.1436,37.4996,15.4616,37.4996,22.5912"/><path fill="#3e4765" stroke="#fe4b1c" d="M1.9584,35.9 L9.674,35.9 L9.674,12.6892 L1.9584,12.6892 Z M5.8676,1.5 C3.2272,1.5,1.5,3.2324,1.5,5.5096 C1.5,7.738,3.1772,9.522,5.7656,9.522 L5.8168,9.522 C8.5084,9.522,10.1828,7.738,10.1828,5.5096 C10.132,3.2324,8.5084,1.5,5.8676,1.5 Z M37.4996,22.5912 L37.4996,35.9 L29.784,35.9 L29.784,23.4824 C29.784,20.3628,28.6676,18.234,25.8748,18.234 C23.7428,18.234,22.474,19.6688,21.9156,21.0564 C21.7124,21.5528,21.66,22.2432,21.66,22.938 L21.66,35.9 L13.942,35.9 C13.942,35.9,14.046,14.8684,13.942,12.6892 L21.66,12.6892 L21.66,15.9792 L21.6092,16.0544 L21.66,16.0544 L21.66,15.9792 C22.6848,14.4,24.5164,12.1436,28.6148,12.1436 C33.6936,12.1436,37.4996,15.4616,37.4996,22.5912"/></g></svg>
