<?xml version="1.0" encoding="UTF-8" standalone="no"?>
<!DOCTYPE svg PUBLIC "-//W3C//DTD SVG 1.1//EN" "http://www.w3.org/Graphics/SVG/1.1/DTD/svg11.dtd">
<!--Generated by Intaglio, www.PurgatoryDesign.com-->
<svg version="1.1" viewBox="1,0,38,27" width="38" height="27" xmlns="http://www.w3.org/2000/svg" xmlns:xlink="http://www.w3.org/1999/xlink"><g><path fill="#3e4765" d="M33.4204,12.524 C35.4444,12.36,36.8164,11.44,37.3444,10.192 C36.6124,10.64,34.3484,11.128,33.1004,10.664 C33.0364,10.372,32.9684,10.092,32.9044,9.84 C31.9484,6.34,28.6884,3.524,25.2684,3.864 C25.5444,3.752,25.8284,3.648,26.1084,3.552 C26.4804,3.42,28.6884,3.06,28.3404,2.28 C28.0484,1.596,25.3524,2.8,24.8444,2.956 C25.5164,2.704,26.6244,2.272,26.7404,1.5 C25.7164,1.64,24.7084,2.128,23.9284,2.832 C24.2084,2.528,24.4244,2.16,24.4684,1.764 C21.7284,3.512,20.1284,7.04,18.8324,10.464 C17.8164,9.48,16.9156,8.704,16.1072,8.272 C13.8392,7.056,11.1276,5.788,6.8704,4.204 C6.74,5.616,7.5672,7.488,9.95,8.732 C9.4336,8.664,8.49,8.816,7.7344,9 C8.0424,10.612,9.0464,11.94,11.7664,12.584 C10.5236,12.664,9.8816,12.948,9.2992,13.56 C9.8648,14.68,11.2464,16,13.7308,15.728 C10.9688,16.92,12.6048,19.124,14.8524,18.796 C11.018,22.756,4.972,22.468,1.5,19.152 C10.5648,31.504,30.2684,26.46,33.2044,14.56 C35.4044,14.58,36.7004,13.8,37.5004,12.94 C36.2324,13.152,34.3964,12.932,33.4204,12.524"/><path fill="#3e4765" stroke="#fe4b1c" d="M33.4204,12.524 C35.4444,12.36,36.8164,11.44,37.3444,10.192 C36.6124,10.64,34.3484,11.128,33.1004,10.664 C33.0364,10.372,32.9684,10.092,32.9044,9.84 C31.9484,6.34,28.6884,3.524,25.2684,3.864 C25.5444,3.752,25.8284,3.648,26.1084,3.552 C26.4804,3.42,28.6884,3.06,28.3404,2.28 C28.0484,1.596,25.3524,2.8,24.8444,2.956 C25.5164,2.704,26.6244,2.272,26.7404,1.5 C25.7164,1.64,24.7084,2.128,23.9284,2.832 C24.2084,2.528,24.4244,2.16,24.4684,1.764 C21.7284,3.512,20.1284,7.04,18.8324,10.464 C17.8164,9.48,16.9156,8.704,16.1072,8.272 C13.8392,7.056,11.1276,5.788,6.8704,4.204 C6.74,5.616,7.5672,7.488,9.95,8.732 C9.4336,8.664,8.49,8.816,7.7344,9 C8.0424,10.612,9.0464,11.94,11.7664,12.584 C10.5236,12.664,9.8816,12.948,9.2992,13.56 C9.8648,14.68,11.2464,16,13.7308,15.728 C10.9688,16.92,12.6048,19.124,14.8524,18.796 C11.018,22.756,4.972,22.468,1.5,19.152 C10.5648,31.504,30.2684,26.46,33.2044,14.56 C35.4044,14.58,36.7004,13.8,37.5004,12.94 C36.2324,13.152,34.3964,12.932,33.4204,12.524"/></g></svg>
