<?xml version="1.0" encoding="UTF-8" standalone="no"?>
<!DOCTYPE svg PUBLIC "-//W3C//DTD SVG 1.1//EN" "http://www.w3.org/Graphics/SVG/1.1/DTD/svg11.dtd">
<!--Generated by Intaglio, www.PurgatoryDesign.com-->
<svg version="1.1" viewBox="0,0,36,26" width="36" height="26" xmlns="http://www.w3.org/2000/svg" xmlns:xlink="http://www.w3.org/1999/xlink"><path fill="#3e4765" d="M31.9212,12.025 C33.9432,11.8582,35.3144,10.939,35.8424,9.6918 C35.1128,10.1398,32.8488,10.6282,31.5984,10.163 C31.5372,9.8694,31.4688,9.5902,31.4016,9.3382 C30.4488,5.8398,27.1868,3.0214,23.7688,3.3618 C24.0452,3.2502,24.3256,3.1462,24.6056,3.053 C24.9816,2.9182,27.1892,2.559,26.8416,1.7798 C26.5484,1.0946,23.8516,2.2978,23.344,2.455 C24.014,2.203,25.1228,1.7694,25.2412,0.999001 C24.2144,1.1398,23.2064,1.6254,22.4276,2.3314 C22.7088,2.0286,22.922,1.6598,22.9672,1.2626 C20.228,3.0126,18.628,6.5406,17.3332,9.9626 C16.3164,8.9774,15.4152,8.2014,14.6068,7.7706 C12.3388,6.5542,9.6272,5.2854,5.3704,3.705 C5.2396,5.1134,6.0668,6.9862,8.4504,8.2314 C7.934,8.1622,6.9896,8.3166,6.2344,8.4974 C6.542,10.111,7.5464,11.4402,10.266,12.083 C9.0232,12.165,8.3808,12.4478,7.7988,13.0574 C8.3648,14.1794,9.746,15.5002,12.2308,15.229 C9.4684,16.4198,11.1044,18.625,13.3524,18.2958 C9.5176,22.2566,3.4716,21.9658,0,18.653 C9.0644,31.0046,28.7684,25.9578,31.7048,14.0606 C33.9044,14.0794,35.198,13.2986,36,12.4378 C34.7324,12.653,32.8956,12.4306,31.9212,12.025 Z"/></svg>
